<svg xmlns="http://www.w3.org/2000/svg" version="1.0" preserveAspectRatio="xMidYMid meet" viewBox="253.97 593.89 1494.03 312.11">

<g transform="translate(0.000000,1500.000000) scale(0.100000,-0.100000)" fill="#000000" stroke="none">
<path d="M11190 9059 c-192 -9 -317 -40 -421 -102 -67 -40 -379 -306 -416 -355 -66 -87 -67 -96 -71 -618 -2 -401 -1 -482 13 -539 33 -145 121 -254 258 -320 126 -60 264 -85 467 -85 224 1 391 30 508 89 77 39 419 327 455 383 61 95 61 98 65 628 2 320 -1 507 -8 550 -39 230 -230 350 -590 368 -74 4 -191 4 -260 1z m355 -30 c194 -24 348 -96 414 -196 65 -97 65 -100 69 -618 4 -588 -1 -625 -102 -733 -119 -128 -409 -191 -750 -163 -311 24 -483 109 -548 268 l-23 58 0 530 0 530 23 57 c58 144 193 227 427 264 101 15 372 17 490 3z"/>
<path d="M11167 8820 c-148 -19 -240 -71 -290 -164 -22 -40 -22 -50 -25 -460 -3 -483 -3 -486 78 -566 34 -35 64 -53 116 -71 64 -22 84 -24 264 -24 178 0 201 2 262 23 84 29 147 84 179 154 l24 53 0 415 c0 413 0 415 -23 461 -45 90 -119 144 -231 168 -73 15 -271 22 -354 11z m406 -49 c75 -29 124 -73 153 -136 24 -50 24 -52 24 -461 l0 -410 -26 -52 c-34 -68 -83 -108 -169 -135 -61 -19 -92 -22 -245 -22 -155 0 -183 3 -248 23 -59 18 -83 32 -117 67 -74 76 -75 85 -75 529 0 239 4 406 10 428 25 88 118 164 230 188 25 5 126 8 225 6 159 -2 187 -5 238 -25z"/>
<path d="M11180 8572 c-19 -9 -40 -28 -47 -42 -16 -31 -18 -664 -3 -704 17 -46 54 -60 164 -64 128 -5 174 9 198 58 16 31 18 71 18 360 0 304 -1 327 -20 357 -24 41 -67 53 -185 53 -66 0 -99 -5 -125 -18z m-6 -294 c13 -19 16 -60 16 -251 0 -178 -3 -228 -12 -225 -32 11 -38 53 -38 276 0 132 4 222 9 222 6 0 17 -10 25 -22z"/>
<path d="M14680 9050 c-207 -25 -281 -61 -516 -257 -211 -176 -244 -216 -268 -322 -23 -100 -23 -934 -1 -1029 59 -250 259 -375 635 -397 215 -13 440 18 577 80 83 37 435 330 475 395 56 91 58 119 58 652 0 504 -3 552 -43 636 -59 128 -221 212 -467 242 -95 11 -351 11 -450 0z m484 -21 c178 -23 330 -97 393 -192 67 -99 67 -102 71 -622 2 -311 -1 -492 -8 -535 -43 -253 -267 -370 -710 -370 -355 0 -591 84 -670 239 -48 95 -51 139 -48 660 3 446 5 490 22 536 53 141 151 217 343 265 146 37 401 45 607 19z"/>
<path d="M14694 8806 c-107 -25 -176 -73 -220 -156 -18 -32 -19 -68 -22 -454 -2 -356 -1 -425 13 -465 46 -139 180 -200 442 -201 121 0 239 18 305 48 62 27 124 99 143 165 14 47 15 113 13 459 l-3 403 -30 54 c-36 65 -97 113 -175 137 -76 23 -379 29 -466 10z m354 -6 c121 -16 183 -42 235 -100 26 -28 49 -67 56 -92 9 -31 11 -159 9 -454 l-3 -411 -30 -49 c-65 -105 -177 -146 -405 -146 -251 -1 -365 45 -424 172 -20 43 -21 60 -21 460 l0 415 31 55 c34 61 100 112 167 131 101 28 253 35 385 19z"/>
<path d="M14807 8580 c-21 -4 -48 -17 -60 -29 -22 -21 -22 -28 -25 -364 -2 -324 -1 -344 17 -374 16 -25 30 -33 71 -42 110 -24 236 -7 270 36 19 25 20 40 20 369 0 342 0 343 -23 369 -34 40 -161 57 -270 35z m-33 -302 c23 -32 24 -478 1 -478 -8 0 -19 9 -25 19 -13 25 -14 481 -1 481 6 0 17 -10 25 -22z"/>
<path d="M2885 9018 c-47 -27 -328 -274 -336 -296 -13 -33 -12 -1563 1 -1597 21 -56 33 -57 599 -52 662 5 606 -9 871 214 194 164 220 192 251 270 22 54 24 71 24 273 0 243 -9 293 -68 371 -33 43 -118 99 -151 99 -22 0 -21 4 13 50 45 62 53 110 49 276 -3 129 -6 156 -26 199 -29 62 -83 120 -143 150 -96 49 -163 55 -631 55 -307 -1 -439 -4 -453 -12z m911 -18 c148 -19 250 -82 295 -182 22 -49 24 -66 24 -213 0 -148 -2 -164 -24 -208 -15 -30 -38 -58 -64 -75 l-40 -27 39 -6 c71 -13 123 -40 167 -89 61 -68 77 -125 84 -300 12 -297 -32 -426 -169 -496 -101 -51 -133 -54 -690 -54 -505 0 -519 1 -538 20 -20 20 -20 33 -20 805 l0 786 25 24 24 25 408 0 c224 0 440 -5 479 -10z"/>
<path d="M3120 8180 l0 -620 363 0 c409 0 440 4 501 65 26 25 37 49 46 92 15 69 8 304 -9 348 -29 72 -99 114 -216 130 l-50 7 31 13 c41 17 81 67 91 113 4 20 8 98 8 172 -1 153 -13 192 -75 241 -63 50 -125 59 -422 59 l-268 0 0 -620z m560 589 c88 -14 127 -40 157 -106 23 -50 24 -62 21 -202 -4 -173 -10 -189 -94 -231 -48 -25 -53 -25 -336 -28 l-288 -3 0 290 0 291 238 0 c130 0 266 -5 302 -11z m127 -599 c106 -14 145 -37 180 -107 26 -55 28 -65 28 -198 0 -155 -11 -193 -66 -239 -47 -40 -107 -46 -469 -46 l-340 0 0 300 0 300 298 0 c163 0 330 -5 369 -10z"/>
<path d="M3380 8495 l0 -125 119 0 c117 0 120 1 140 26 17 21 21 41 21 96 0 38 -5 78 -10 88 -15 27 -71 40 -177 40 l-93 0 0 -125z"/>
<path d="M3380 7875 l0 -135 160 0 c182 0 205 6 220 59 21 76 5 182 -30 201 -10 6 -92 10 -184 10 l-166 0 0 -135z"/>
<path d="M4779 9013 c-67 -46 -317 -267 -328 -289 -8 -18 -11 -240 -11 -795 0 -862 -3 -829 67 -848 40 -11 369 -15 420 -5 18 3 95 60 194 142 187 157 188 157 188 300 1 50 4 92 9 92 4 0 18 -7 30 -16 22 -15 22 -19 22 -225 0 -246 6 -271 67 -288 46 -13 386 -15 430 -2 37 11 342 262 361 298 10 19 13 93 10 336 l-3 312 -26 55 c-35 74 -76 120 -141 155 -29 15 -55 29 -57 31 -1 1 9 18 23 36 43 58 59 144 54 298 -4 105 -10 147 -26 189 -46 117 -106 175 -221 213 -64 22 -82 22 -551 25 -451 3 -487 2 -511 -14z m956 -13 c103 -15 158 -36 209 -82 87 -76 125 -181 126 -344 0 -150 -31 -252 -90 -296 l-31 -22 45 -13 c114 -33 195 -127 216 -251 7 -42 10 -168 8 -333 -3 -246 -4 -269 -22 -288 -18 -20 -28 -21 -241 -21 -213 0 -223 1 -241 21 -17 19 -19 43 -24 251 -5 213 -6 231 -24 244 -15 11 -61 14 -203 14 l-183 0 0 -245 c0 -232 -1 -246 -20 -265 -19 -19 -33 -20 -237 -20 -120 0 -223 4 -229 8 -33 22 -34 48 -34 822 0 527 3 778 11 791 6 11 20 24 32 29 30 12 846 12 932 0z"/>
<path d="M5010 8180 c0 -407 3 -620 10 -620 6 0 10 95 10 265 l0 265 358 0 c384 0 427 -5 487 -52 56 -44 65 -83 65 -290 0 -160 2 -188 15 -188 13 0 15 22 15 143 0 78 -5 171 -10 207 -17 119 -91 184 -222 197 l-67 6 32 17 c75 40 101 137 95 353 -4 149 -19 197 -79 255 -58 56 -98 62 -421 62 l-288 0 0 -620z m600 589 c63 -14 116 -57 143 -119 16 -34 22 -73 25 -162 8 -201 -22 -304 -102 -349 -40 -24 -46 -24 -343 -27 l-303 -3 0 329 c0 181 3 332 7 335 11 12 518 8 573 -4z"/>
<path d="M5280 8445 l0 -145 110 0 c104 0 112 2 135 24 29 29 39 79 32 159 -5 50 -10 66 -32 84 -24 21 -36 23 -136 23 l-109 0 0 -145z"/>
<path d="M6725 9021 c-11 -5 -90 -68 -175 -140 -109 -92 -159 -141 -167 -163 -15 -41 -17 -1085 -3 -1198 22 -170 79 -272 193 -350 126 -85 247 -118 473 -127 249 -10 449 21 574 88 30 16 141 101 246 188 177 147 194 164 223 222 17 35 35 88 41 118 14 78 13 1292 -1 1324 -19 42 -47 47 -272 47 -184 0 -216 -2 -237 -17 -71 -49 -323 -270 -331 -291 -5 -13 -9 -224 -9 -470 0 -425 -1 -445 -17 -429 -17 16 -18 62 -23 592 -5 534 -6 576 -23 592 -16 16 -42 18 -245 20 -125 1 -236 -2 -247 -6z m469 -32 l26 -20 0 -554 c0 -336 4 -564 10 -579 18 -49 64 -66 176 -66 112 0 158 11 177 44 9 16 13 166 17 588 5 527 6 569 23 585 16 16 40 18 238 18 220 0 221 0 240 -24 18 -22 19 -47 19 -640 0 -666 -3 -709 -54 -795 -79 -135 -238 -204 -519 -227 -158 -13 -375 -1 -487 27 -91 23 -200 75 -248 119 -56 50 -99 141 -112 238 -11 87 -13 1216 -1 1257 12 44 40 50 262 50 194 0 208 -1 233 -21z"/>
<path d="M6950 8293 c0 -315 4 -522 10 -545 6 -20 25 -58 43 -84 63 -93 188 -134 408 -134 143 0 254 21 324 59 54 31 108 99 125 159 13 50 14 1052 0 1052 -7 0 -10 -173 -10 -498 0 -575 0 -575 -79 -653 -37 -38 -61 -52 -121 -70 -65 -21 -96 -24 -235 -24 -211 0 -289 19 -363 89 -19 17 -43 49 -55 71 -22 39 -22 49 -25 563 -2 327 -6 522 -12 522 -6 0 -10 -188 -10 -507z"/>
<path d="M8690 9023 c-16 -6 -279 -225 -323 -269 l-27 -27 0 -802 0 -802 26 -24 c25 -23 31 -24 207 -27 99 -2 200 -1 223 3 36 5 69 27 201 136 87 71 166 142 175 157 12 18 18 48 18 87 l1 60 24 -30 c24 -29 25 -35 25 -183 0 -182 8 -205 71 -222 26 -7 114 -10 233 -8 l192 3 99 80 c178 145 249 210 256 235 4 14 7 368 8 788 1 831 2 821 -54 842 -34 13 -430 13 -454 1 -10 -6 -80 -62 -156 -125 -77 -64 -142 -116 -145 -115 -3 0 -45 48 -94 106 -119 141 -124 143 -331 142 -88 0 -167 -3 -175 -6z m364 -33 c30 -15 102 -91 271 -285 l230 -265 5 265 c4 236 7 266 23 282 16 16 40 18 238 18 207 0 221 -1 235 -19 12 -17 14 -144 14 -812 l0 -793 -22 -15 c-19 -13 -58 -16 -233 -16 -115 0 -215 4 -221 8 -28 18 -34 56 -34 204 l0 154 -192 233 -193 234 -5 -399 c-3 -220 -7 -400 -8 -401 -1 -1 -9 -9 -18 -17 -13 -14 -48 -16 -231 -16 -187 0 -219 2 -235 17 -17 15 -18 54 -18 808 0 822 0 814 40 828 8 3 82 6 164 6 130 1 155 -2 190 -19z"/>
<path d="M8907 8793 c-12 -11 -8 -1233 3 -1233 6 0 11 216 12 612 l3 612 440 -494 440 -493 3 -118 c1 -68 7 -119 12 -119 6 0 10 226 10 620 0 403 -3 620 -10 620 -6 0 -11 -173 -12 -485 l-3 -485 -402 453 c-221 248 -416 467 -432 485 -29 31 -50 39 -64 25z"/>
<path d="M12417 9017 c-38 -17 -322 -257 -339 -286 -18 -34 -19 -366 0 -399 21 -36 52 -42 238 -42 l174 0 0 -580 0 -581 25 -24 24 -25 235 0 234 0 154 126 c84 69 163 137 176 151 l22 24 0 453 0 453 38 6 c28 5 70 33 172 117 74 61 152 128 173 148 l37 36 0 189 c0 104 -4 197 -10 207 -5 10 -24 23 -41 29 -47 16 -1274 14 -1312 -2z m1328 -32 c25 -24 25 -27 25 -200 0 -239 15 -225 -235 -225 l-185 0 0 -569 c0 -385 -4 -578 -11 -599 -17 -48 -52 -54 -292 -50 -205 3 -209 3 -228 27 -18 22 -19 47 -19 607 l0 584 -188 0 c-250 0 -232 -18 -232 225 0 172 1 186 20 205 20 20 33 20 670 20 l651 0 24 -25z"/>
<path d="M12590 8790 c0 -6 91 -11 238 -12 l237 -3 5 -610 5 -610 3 613 2 612 235 0 c150 0 235 4 235 10 0 7 -167 10 -480 10 -307 0 -480 -4 -480 -10z"/>
<path d="M16092 9019 c-30 -12 -329 -264 -342 -289 -13 -24 -13 -375 0 -400 17 -32 67 -40 241 -40 l169 0 0 -580 0 -581 25 -24 24 -25 235 0 235 0 58 47 c32 26 109 89 171 141 61 52 113 95 114 96 1 0 5 208 8 460 l5 459 42 12 c56 17 358 266 373 309 5 16 10 99 10 185 0 173 -12 219 -60 232 -39 11 -1282 9 -1308 -2z m1325 -31 c22 -21 23 -26 23 -200 0 -243 15 -228 -235 -228 l-185 0 0 -574 c0 -330 -4 -585 -9 -599 -15 -40 -58 -47 -266 -47 -207 0 -246 7 -264 46 -8 18 -11 191 -11 599 l0 575 -185 0 c-250 0 -235 -14 -235 225 0 173 0 176 25 200 l24 25 647 0 648 0 23 -22z"/>
<path d="M16270 8790 c0 -6 85 -10 235 -10 l235 0 3 -612 2 -613 3 613 2 612 240 0 c153 0 240 4 240 10 0 7 -167 10 -480 10 -313 0 -480 -3 -480 -10z"/>
<path d="M10073 6553 c-10 -3 -13 -62 -13 -244 0 -206 2 -239 15 -239 13 0 15 34 15 245 0 135 -1 245 -2 244 -2 0 -9 -3 -15 -6z"/>
<path d="M11483 6553 c-10 -4 -13 -61 -13 -243 l0 -238 38 -2 c80 -5 110 -2 141 15 85 43 96 229 17 280 -35 23 -92 22 -127 -4 -15 -12 -30 -21 -33 -21 -3 0 -7 49 -8 108 -2 82 -6 108 -15 105z m174 -217 c24 -21 28 -32 31 -92 3 -76 -7 -105 -49 -137 -27 -19 -79 -25 -118 -12 -20 6 -21 13 -21 110 0 103 0 103 31 129 40 34 88 34 126 2z"/>
<path d="M12363 6553 c-10 -3 -13 -62 -13 -244 0 -206 2 -239 15 -239 13 0 15 34 15 245 0 135 -1 245 -2 244 -2 0 -9 -3 -15 -6z"/>
<path d="M12723 6553 c-9 -3 -13 -30 -13 -87 l0 -82 -64 0 c-74 1 -110 -18 -138 -75 -37 -71 -13 -196 43 -224 39 -21 92 -19 122 5 14 11 30 20 35 20 5 0 12 -9 15 -20 3 -13 14 -20 30 -20 33 0 44 18 15 22 -23 3 -23 3 -28 234 -4 178 -8 230 -17 227z m-21 -199 c4 -3 8 -52 8 -109 0 -103 0 -103 -31 -129 -34 -29 -67 -33 -108 -12 -36 19 -51 55 -51 122 0 68 21 111 63 130 29 13 96 12 119 -2z"/>
<path d="M13783 6552 c-10 -6 -13 -64 -11 -244 l2 -236 40 -2 c119 -7 155 7 189 71 14 26 17 51 15 106 -3 63 -7 76 -32 102 -38 39 -77 44 -135 15 -25 -13 -47 -24 -48 -24 -1 0 -4 49 -5 110 -2 84 -6 108 -15 102z m176 -216 c54 -57 45 -191 -14 -230 -28 -18 -67 -22 -112 -12 l-33 8 0 103 0 104 33 25 c43 34 95 35 126 2z"/>
<path d="M12187 6514 c-14 -14 -7 -35 11 -32 9 2 17 10 17 17 0 16 -18 25 -28 15z"/>
<path d="M8700 6290 l0 -220 115 0 c70 0 115 4 115 10 0 6 -40 10 -100 10 l-100 0 0 100 0 100 79 0 c44 0 83 5 86 10 4 6 -25 10 -79 10 l-86 0 0 90 0 90 100 0 c60 0 100 4 100 10 0 6 -45 10 -115 10 l-115 0 0 -220z"/>
<path d="M9343 6453 c-7 -3 -13 -20 -13 -39 0 -27 -4 -34 -20 -34 -11 0 -20 -4 -20 -10 0 -5 9 -10 20 -10 19 0 20 -7 20 -116 0 -110 8 -149 34 -166 13 -9 59 -10 80 -2 29 11 17 23 -17 17 -58 -9 -67 10 -67 148 l0 119 50 0 c28 0 50 5 50 10 0 6 -22 10 -49 10 l-50 0 -3 38 c-2 26 -7 37 -15 35z"/>
<path d="M17358 6450 c-4 -8 -8 -26 -10 -40 -2 -17 -10 -26 -25 -28 -13 -2 -23 -7 -23 -12 0 -5 10 -10 23 -12 21 -3 22 -6 23 -125 0 -104 3 -125 19 -143 18 -20 58 -26 89 -14 29 11 17 23 -17 17 -58 -9 -67 10 -67 148 l0 119 55 0 c30 0 55 5 55 10 0 6 -24 10 -54 10 l-55 0 -3 43 c-2 24 -6 36 -10 27z"/>
<path d="M9060 6381 c-37 -12 -70 -34 -70 -47 0 -6 21 0 49 13 75 38 121 14 121 -61 l0 -44 -67 -16 c-93 -23 -113 -38 -113 -81 0 -72 78 -100 138 -50 37 31 40 31 44 3 2 -18 11 -24 36 -26 36 -4 45 15 10 20 -22 3 -23 6 -23 126 -1 108 -3 125 -20 142 -24 23 -70 32 -105 21z m100 -192 c0 -66 -104 -128 -140 -84 -15 18 -16 63 -2 77 9 9 97 34 130 37 7 1 12 -11 12 -30z"/>
<path d="M9845 6383 c-36 -9 -65 -44 -65 -79 0 -39 16 -57 81 -89 69 -35 85 -69 49 -105 -22 -22 -88 -27 -121 -10 -15 8 -19 7 -19 -4 0 -19 40 -30 103 -27 40 2 77 42 77 84 0 39 -13 52 -87 92 -57 30 -70 52 -53 85 16 29 52 41 92 29 41 -11 38 -12 38 6 0 8 -8 15 -17 15 -10 0 -27 2 -38 4 -11 2 -29 2 -40 -1z"/>
<path d="M10281 6373 c-50 -26 -74 -64 -79 -126 -8 -95 29 -160 100 -176 40 -9 120 8 126 28 4 10 0 12 -14 7 -99 -40 -176 -1 -186 94 l-3 35 108 3 107 3 0 39 c0 82 -86 132 -159 93z m112 -34 c9 -12 17 -34 17 -50 l0 -29 -90 0 c-65 0 -90 3 -90 13 0 22 40 77 63 87 32 14 79 3 100 -21z"/>
<path d="M10601 6373 c-50 -26 -74 -64 -79 -126 -8 -95 29 -160 100 -176 40 -9 120 8 126 28 4 10 0 12 -14 7 -99 -40 -176 -1 -185 94 l-4 35 108 3 107 3 0 39 c0 82 -86 132 -159 93z m112 -34 c9 -12 17 -34 17 -50 l0 -29 -90 0 c-65 0 -90 3 -90 13 0 22 40 77 63 87 32 14 79 3 100 -21z"/>
<path d="M10944 6365 c-27 -14 -50 -25 -51 -25 -2 0 -3 9 -3 20 0 11 -4 20 -10 20 -6 0 -10 -80 -10 -220 0 -169 3 -220 13 -220 9 0 11 18 9 66 l-4 66 39 -2 c84 -4 102 0 137 30 55 49 69 155 30 232 -28 54 -84 66 -150 33z m111 -29 c48 -48 45 -167 -5 -218 -24 -24 -37 -28 -82 -28 -30 0 -59 5 -66 12 -15 15 -16 181 -2 208 27 51 116 65 155 26z"/>
<path d="M13500 6372 c-94 -47 -106 -220 -19 -285 43 -31 169 -21 169 14 0 7 -7 8 -17 3 -10 -4 -39 -9 -64 -12 -40 -3 -51 0 -79 25 -25 22 -33 39 -37 76 l-6 47 107 0 106 0 0 41 c0 53 -14 78 -55 95 -45 18 -63 18 -105 -4z m104 -24 c15 -13 29 -38 32 -55 l7 -33 -97 0 c-53 0 -96 2 -96 4 0 24 29 72 54 87 41 25 69 24 100 -3z"/>
<path d="M14295 6379 c-36 -11 -71 -36 -62 -45 3 -3 26 3 51 15 75 37 116 13 116 -68 0 -36 -3 -41 -27 -47 -87 -19 -134 -36 -143 -54 -16 -30 -12 -57 13 -85 30 -35 76 -36 121 -2 l34 26 6 -24 c5 -20 13 -25 36 -25 35 0 41 17 8 22 -22 3 -23 6 -20 103 3 135 -2 161 -38 180 -32 17 -51 18 -95 4z m105 -195 c0 -68 -91 -121 -134 -78 -20 19 -21 58 -1 74 13 11 94 37 123 39 7 1 12 -12 12 -35z"/>
<path d="M14679 6380 c-14 -4 -38 -15 -52 -25 -26 -17 -27 -17 -27 4 0 12 -6 21 -15 21 -13 0 -15 -31 -15 -220 0 -189 2 -220 15 -220 12 0 15 14 15 64 l0 65 59 0 c70 -1 115 19 136 62 35 67 28 185 -14 223 -25 23 -71 34 -102 26z m62 -30 c29 -16 49 -64 49 -120 0 -90 -42 -140 -116 -140 -74 0 -74 0 -74 115 0 103 0 103 31 129 32 27 76 34 110 16z"/>
<path d="M15004 6365 c-27 -14 -50 -25 -51 -25 -2 0 -3 9 -3 20 0 11 -6 20 -12 20 -10 0 -13 -51 -13 -220 0 -169 3 -220 13 -220 8 0 12 20 12 65 l0 64 65 0 c110 -1 155 47 155 164 0 72 -17 120 -48 135 -42 22 -70 21 -118 -3z m95 -15 c23 -12 51 -80 51 -123 -1 -43 -33 -113 -60 -127 -24 -13 -86 -16 -119 -5 -21 6 -22 11 -19 113 l3 106 34 23 c36 24 80 30 110 13z"/>
<path d="M15315 6380 c-37 -12 -55 -35 -55 -71 0 -45 10 -58 72 -91 32 -17 63 -39 69 -49 11 -22 -3 -64 -26 -73 -26 -9 -84 -7 -106 4 -15 8 -19 7 -19 -4 0 -19 40 -30 103 -27 40 2 77 42 77 84 0 39 -14 54 -87 91 -62 31 -78 65 -46 98 22 22 52 26 96 15 21 -6 27 -4 27 8 0 8 -8 15 -17 15 -10 0 -27 2 -38 5 -11 2 -33 0 -50 -5z"/>
<path d="M16071 6372 c-47 -26 -71 -74 -71 -145 0 -109 40 -157 129 -157 59 0 101 14 101 34 0 13 -3 13 -27 0 -41 -21 -105 -18 -136 6 -25 20 -47 73 -47 113 0 15 12 17 110 17 l110 0 0 28 c0 15 -8 43 -18 62 -29 59 -89 75 -151 42z m122 -33 c9 -12 17 -34 17 -50 l0 -29 -90 0 c-81 0 -90 2 -90 19 0 23 36 70 64 82 31 13 78 2 99 -22z"/>
<path d="M16421 6364 c-55 -29 -51 -28 -51 -4 0 11 -6 20 -13 20 -10 0 -13 -49 -14 -220 -1 -181 2 -220 13 -220 11 0 14 16 14 65 l0 64 66 0 c112 -1 157 52 152 178 -3 63 -7 76 -32 102 -38 39 -77 44 -135 15z m107 -24 c57 -54 46 -206 -19 -240 -23 -13 -86 -16 -117 -5 -21 6 -22 13 -22 110 l0 104 33 25 c40 32 94 35 125 6z"/>
<path d="M16755 6376 c-42 -18 -62 -44 -76 -96 -26 -97 16 -193 91 -209 40 -8 106 1 123 18 16 16 2 24 -21 12 -12 -6 -39 -11 -61 -11 -59 0 -101 40 -108 103 l-6 47 107 0 106 0 0 35 c0 51 -24 91 -61 104 -40 14 -57 13 -94 -3z m99 -28 c15 -13 29 -38 32 -55 l7 -33 -97 0 c-53 0 -96 2 -96 4 0 24 29 72 54 87 41 25 69 24 100 -3z"/>
<path d="M17065 6379 c-34 -11 -71 -36 -63 -44 3 -3 26 4 51 15 78 35 117 11 117 -69 0 -36 -3 -41 -27 -46 -93 -20 -138 -41 -147 -67 -13 -37 9 -86 43 -95 41 -10 60 -6 96 21 l34 26 3 -23 c2 -17 11 -23 36 -25 36 -4 45 15 10 20 -22 3 -23 6 -23 118 -1 149 0 147 -35 165 -32 17 -51 18 -95 4z m105 -192 c0 -36 -12 -55 -50 -81 -52 -34 -104 -9 -98 48 3 29 7 32 63 48 84 23 85 23 85 -15z"/>
<path d="M11820 6251 c0 -115 2 -131 21 -155 28 -36 91 -36 139 -1 l33 25 11 -23 c13 -26 61 -35 69 -14 4 11 0 13 -15 9 -11 -3 -24 1 -29 9 -5 8 -9 74 -9 147 0 81 -4 132 -10 132 -6 0 -10 -46 -10 -119 l0 -120 -30 -21 c-43 -31 -96 -37 -120 -15 -18 16 -20 31 -20 147 0 107 -2 128 -15 128 -13 0 -15 -21 -15 -129z"/>
<path d="M12190 6248 c0 -73 -3 -143 -6 -155 -5 -17 -2 -23 10 -23 14 0 16 19 16 155 0 97 -4 155 -10 155 -6 0 -10 -51 -10 -132z"/>
<path d="M12955 6368 c7 -19 85 -290 85 -295 0 -1 8 -3 18 -3 14 0 27 28 61 136 23 75 45 133 49 129 4 -3 23 -64 42 -133 25 -88 41 -128 51 -130 12 -2 28 32 68 147 56 163 56 164 40 159 -7 -2 -30 -62 -53 -133 -23 -72 -46 -130 -51 -130 -5 0 -25 60 -44 132 -27 98 -40 133 -51 133 -11 0 -29 -39 -60 -135 -24 -74 -47 -135 -50 -135 -4 0 -23 61 -44 135 -25 87 -43 135 -52 135 -7 0 -11 -6 -9 -12z"/>
<path d="M15810 6225 c0 -137 2 -155 16 -155 15 0 16 10 11 91 -6 73 -4 96 9 122 25 50 45 67 76 67 18 0 28 5 28 15 0 29 -47 17 -79 -20 l-31 -36 0 36 c0 24 -4 35 -15 35 -13 0 -15 -24 -15 -155z"/>
<path d="M9527 6103 c-3 -5 -2 -15 3 -23 10 -15 3 -38 -18 -62 -9 -10 -10 -18 -4 -18 15 0 52 49 52 70 0 20 -26 45 -33 33z"/>
<path d="M11191 6101 c-9 -6 -10 -11 -2 -15 17 -11 13 -44 -9 -66 -16 -16 -17 -20 -5 -20 13 0 55 54 55 71 0 17 -26 38 -39 30z"/>
<path d="M15531 6101 c-9 -6 -10 -11 -2 -15 17 -11 13 -44 -9 -66 -16 -16 -17 -20 -5 -20 13 0 55 54 55 71 0 17 -26 38 -39 30z"/>
</g>
</svg>